<?xml version="1.0" encoding="UTF-8"?>
<svg xmlns="http://www.w3.org/2000/svg" xmlns:xlink="http://www.w3.org/1999/xlink" width="118px" height="32px" viewBox="0 0 118 32" version="1.1">
<g id="surface1">
<path style=" stroke:none;fill-rule:nonzero;fill:rgb(84.705882%,12.156863%,14.901961%);fill-opacity:1;" d="M 16.226562 29.910156 C 14.449219 30.222656 12.644531 30.316406 10.777344 30.566406 L 5.078125 13.832031 L 5.078125 31.285156 C 3.300781 31.46875 1.683594 31.71875 0 31.96875 L 0 0 L 4.734375 0 L 11.210938 18.140625 L 11.210938 0 L 16.226562 0 Z M 26.035156 11.707031 C 27.964844 11.707031 30.925781 11.613281 32.699219 11.613281 L 32.699219 16.609375 C 30.488281 16.609375 27.902344 16.609375 26.035156 16.703125 L 26.035156 24.132812 C 28.964844 23.945312 31.890625 23.695312 34.847656 23.601562 L 34.847656 28.410156 L 21.050781 29.503906 L 21.050781 0 L 34.847656 0 L 34.847656 4.996094 L 26.035156 4.996094 Z M 53.378906 4.996094 L 48.210938 4.996094 L 48.210938 27.972656 C 46.527344 27.972656 44.84375 27.972656 43.226562 28.035156 L 43.226562 4.996094 L 38.058594 4.996094 L 38.058594 0 L 53.378906 0 Z M 61.476562 11.363281 L 68.296875 11.363281 L 68.296875 16.359375 L 61.476562 16.359375 L 61.476562 27.691406 L 56.585938 27.691406 L 56.585938 0 L 70.507812 0 L 70.507812 4.996094 L 61.476562 4.996094 Z M 78.605469 23.320312 C 81.4375 23.382812 84.304688 23.601562 87.074219 23.757812 L 87.074219 28.691406 C 82.621094 28.410156 78.167969 28.128906 73.621094 28.035156 L 73.621094 0 L 78.605469 0 Z M 91.28125 29.035156 C 92.867188 29.128906 94.550781 29.222656 96.167969 29.410156 L 96.167969 0 L 91.28125 0 Z M 118 0 L 111.679688 15.203125 L 118 31.96875 C 116.132812 31.71875 114.261719 31.378906 112.394531 31.066406 L 108.8125 21.824219 L 105.167969 30.316406 C 103.363281 30.003906 101.617188 29.910156 99.8125 29.660156 L 106.226562 15.015625 L 100.433594 0 L 105.792969 0 L 109.0625 8.398438 L 112.550781 0 Z M 118 0 "/>
</g>
</svg>
